<svg width="16" height="15" viewBox="0 0 16 15" fill="none" xmlns="http://www.w3.org/2000/svg">
<path d="M2 3.5C2 2.39543 2.89543 1.5 4 1.5H6.5C6.77614 1.5 7 1.27614 7 1C7 0.723858 6.77614 0.5 6.5 0.5H4C2.34315 0.5 1 1.84315 1 3.5V11.5C1 13.1569 2.34315 14.5 4 14.5H12C13.6569 14.5 15 13.1569 15 11.5V9C15 8.72386 14.7761 8.5 14.5 8.5C14.2239 8.5 14 8.72386 14 9V11.5C14 12.6046 13.1046 13.5 12 13.5H8V9.5C8 8.39543 7.10457 7.5 6 7.5H2V3.5ZM2 8.5H6C6.55228 8.5 7 8.94772 7 9.5V13.5H4C2.89543 13.5 2 12.6046 2 11.5V8.5ZM9 1C9 0.723858 9.22386 0.5 9.5 0.5H14.5C14.7761 0.5 15 0.723858 15 1V6C15 6.27614 14.7761 6.5 14.5 6.5C14.2239 6.5 14 6.27614 14 6V2.20711L9.85355 6.35355C9.65829 6.54882 9.34171 6.54882 9.14645 6.35355C8.95118 6.15829 8.95118 5.84171 9.14645 5.64645L13.2929 1.5H9.5C9.22386 1.5 9 1.27614 9 1Z" fill="white" stroke="white" stroke-width="0.5" stroke-linecap="round"/>
</svg>
